<?xml version="1.0" encoding="UTF-8"?>
<svg width="28px" height="28px" viewBox="0 0 28 28" version="1.1" xmlns="http://www.w3.org/2000/svg" xmlns:xlink="http://www.w3.org/1999/xlink">
    <title>gujianshengji备份</title>
    <g id="Text-Hyperlink-List-&amp;-Container" stroke="none" stroke-width="1" fill="none" fill-rule="evenodd">
        <g id="gujianshengji备份" fill="#333333" fill-rule="nonzero">
            <path d="M14.708,9.294 C14.527,9.1125 14.2765,9 14,9 C13.7235,9 13.473,9.1125 13.292,9.294 L9.2935,13.2925 C9.03354342,13.5435745 8.9292874,13.9153779 9.02080284,14.2650073 C9.11231828,14.6146368 9.38536324,14.8876817 9.73499268,14.9791972 C10.0846221,15.0707126 10.4564255,14.9664566 10.7075,14.7065 L13,12.414 L13,18 C13,18.5522847 13.4477153,19 14,19 C14.5522847,19 15,18.5522847 15,18 L15,12.414 L17.2925,14.7065 C17.5436667,14.9663663 17.9155062,15.0704896 18.2651024,14.9788504 C18.6146985,14.8872111 18.8876461,14.6140703 18.9790381,14.2644095 C19.0704301,13.9147487 18.9660438,13.5429829 18.706,13.292 L14.708,9.294 L14.708,9.294 Z" id="路径"></path>
            <path d="M27,16 L26,16 L26,12 L27,12 C27.5522847,12 28,11.5522847 28,11 C28,10.4477153 27.5522847,10 27,10 L26,10 L26,9 C26,5.14 22.86,2 19,2 L18,2 L18,1 C18,0.44771525 17.5522847,0 17,0 C16.4477153,0 16,0.44771525 16,1 L16,2 L12,2 L12,1 C12,0.44771525 11.5522847,0 11,0 C10.4477153,0 10,0.44771525 10,1 L10,2 L9,2 C5.14,2 2,5.14 2,9 L2,10 L1,10 C0.44771525,10 0,10.4477153 0,11 C0,11.5522847 0.44771525,12 1,12 L2,12 L2,16 L1,16 C0.44771525,16 0,16.4477153 0,17 C0,17.5522847 0.44771525,18 1,18 L2,18 L2,19 C2,22.86 5.14,26 9,26 L10,26 L10,27 C10,27.5522847 10.4477153,28 11,28 C11.5522847,28 12,27.5522847 12,27 L12,26 L16,26 L16,27 C16,27.5522847 16.4477153,28 17,28 C17.5522847,28 18,27.5522847 18,27 L18,26 L19,26 C22.86,26 26,22.86 26,19 L26,18 L27,18 C27.5522847,18 28,17.5522847 28,17 C28,16.4477153 27.5522847,16 27,16 Z M24,19 C24,21.757 21.757,24 19,24 L9,24 C6.243,24 4,21.757 4,19 L4,9 C4,6.243 6.243,4 9,4 L19,4 C21.757,4 24,6.243 24,9 L24,19 Z" id="形状"></path>
        </g>
    </g>
</svg>